<?xml version="1.0" encoding="UTF-8" standalone="no"?>
<!DOCTYPE svg PUBLIC "-//W3C//DTD SVG 1.1//EN" "http://www.w3.org/Graphics/SVG/1.1/DTD/svg11.dtd">
<svg width="100%" height="100%" viewBox="0 0 57 57" version="1.1" xmlns="http://www.w3.org/2000/svg" xmlns:xlink="http://www.w3.org/1999/xlink" xml:space="preserve" xmlns:serif="http://www.serif.com/" style="fill-rule:evenodd;clip-rule:evenodd;stroke-linejoin:round;stroke-miterlimit:2;">
    <g id="Canvas" transform="matrix(1,0,0,1,619.5,162)">
        <g id="Brook">
            <g id="path0_stroke" transform="matrix(1,0,0,1,-611,-155)">
                <g id="Vector">
                    <path id="path0_stroke1" serif:id="path0_stroke" d="M16.897,5.064C18.684,3.765 19.08,1.264 17.781,-0.523C16.482,-2.31 13.981,-2.706 12.194,-1.407L16.897,5.064ZM2.284,-1.455C0.47,-2.717 -2.023,-2.269 -3.284,-0.455C-4.545,1.358 -4.097,3.851 -2.284,5.113L2.284,-1.455ZM10.376,-0.207C8.589,1.092 8.193,3.593 9.492,5.38C10.79,7.167 13.292,7.563 15.079,6.265L10.376,-0.207ZM24.989,6.313C26.803,7.574 29.295,7.126 30.557,5.313C31.818,3.499 31.37,1.006 29.556,-0.255L24.989,6.313ZM40,1.829L44,1.829L44,-6.023L37.648,-1.407L40,1.829ZM27.738,-1.455C25.925,-2.717 23.432,-2.269 22.171,-0.455C20.909,1.358 21.357,3.851 23.171,5.113L27.738,-1.455ZM40,15.543L42.352,18.779L44,17.581L44,15.543L40,15.543ZM16.897,18.779C18.684,17.48 19.08,14.978 17.781,13.191C16.482,11.404 13.981,11.008 12.194,12.307L16.897,18.779ZM0,15.543L2.284,12.259L-4,7.889L-4,15.543L0,15.543ZM10.376,13.507C8.589,14.806 8.193,17.308 9.492,19.095C10.79,20.882 13.292,21.277 15.079,19.979L10.376,13.507ZM24.989,20.027C26.803,21.288 29.295,20.84 30.557,19.027C31.818,17.213 31.37,14.72 29.556,13.459L24.989,20.027ZM27.738,12.259C25.925,10.998 23.432,11.445 22.171,13.259C20.909,15.073 21.357,17.565 23.171,18.827L27.738,12.259ZM-4,28.8C-4,31.009 -2.209,32.8 -0,32.8C2.209,32.8 4,31.009 4,28.8L-4,28.8ZM16.897,32.493C18.684,31.194 19.08,28.692 17.781,26.905C16.482,25.118 13.981,24.723 12.194,26.021L16.897,32.493ZM2.284,25.973C0.47,24.712 -2.023,25.16 -3.284,26.973C-4.545,28.787 -4.097,31.28 -2.284,32.541L2.284,25.973ZM10.376,27.221C8.589,28.52 8.193,31.022 9.492,32.809C10.79,34.596 13.292,34.992 15.079,33.693L10.376,27.221ZM24.989,33.741C26.803,35.002 29.295,34.555 30.557,32.741C31.818,30.927 31.37,28.435 29.556,27.173L24.989,33.741ZM40,29.257L44,29.257L44,21.405L37.648,26.021L40,29.257ZM27.738,25.973C25.925,24.712 23.432,25.16 22.171,26.973C20.909,28.787 21.357,31.28 23.171,32.541L27.738,25.973ZM36,42.057C36,44.266 37.791,46.057 40,46.057C42.209,46.057 44,44.266 44,42.057L36,42.057ZM16.897,46.207C18.684,44.908 19.08,42.407 17.781,40.62C16.482,38.833 13.981,38.437 12.194,39.736L16.897,46.207ZM2.284,39.687C0.47,38.426 -2.023,38.874 -3.284,40.687C-4.545,42.501 -4.097,44.994 -2.284,46.255L2.284,39.687ZM10.376,40.936C8.589,42.234 8.193,44.736 9.492,46.523C10.79,48.31 13.292,48.706 15.079,47.407L10.376,40.936ZM24.989,47.455C26.803,48.717 29.295,48.269 30.557,46.455C31.818,44.642 31.37,42.149 29.556,40.888L24.989,47.455ZM42.352,46.207C44.139,44.908 44.535,42.407 43.236,40.62C41.937,38.833 39.435,38.437 37.648,39.736L42.352,46.207ZM27.738,39.687C25.925,38.426 23.432,38.874 22.171,40.687C20.909,42.501 21.357,44.994 23.171,46.255L27.738,39.687ZM12.194,-1.407C9.626,0.459 8.304,0.855 7.378,0.857C6.426,0.859 5.02,0.448 2.284,-1.455L-2.284,5.113C0.813,7.266 3.914,8.864 7.394,8.857C10.899,8.85 13.934,7.218 16.897,5.064L12.194,-1.407ZM15.079,6.265C17.647,4.398 18.969,4.002 19.895,4C20.847,3.998 22.253,4.41 24.989,6.313L29.556,-0.255C26.46,-2.409 23.358,-4.007 19.879,-4C16.374,-3.993 13.339,-2.361 10.376,-0.207L15.079,6.265ZM37.648,-1.407C35.08,0.459 33.758,0.855 32.832,0.857C31.88,0.859 30.475,0.448 27.738,-1.455L23.171,5.113C26.267,7.266 29.369,8.864 32.848,8.857C36.353,8.85 39.388,7.218 42.352,5.064L37.648,-1.407ZM36,1.829L36,15.543L44,15.543L44,1.829L36,1.829ZM12.194,12.307C9.626,14.174 8.304,14.57 7.378,14.572C6.426,14.573 5.02,14.162 2.284,12.259L-2.284,18.827C0.813,20.98 3.914,22.579 7.394,22.572C10.899,22.564 13.934,20.932 16.897,18.779L12.194,12.307ZM15.079,19.979C17.647,18.112 18.969,17.716 19.895,17.714C20.847,17.712 22.253,18.124 24.989,20.027L29.556,13.459C26.46,11.306 23.358,9.707 19.879,9.714C16.374,9.721 13.339,11.354 10.376,13.507L15.079,19.979ZM37.648,12.307C35.08,14.174 33.758,14.57 32.832,14.572C31.88,14.573 30.475,14.162 27.738,12.259L23.171,18.827C26.267,20.98 29.369,22.579 32.848,22.572C36.353,22.564 39.388,20.932 42.352,18.779L37.648,12.307ZM-4,15.543L-4,28.8L4,28.8L4,15.543L-4,15.543ZM12.194,26.021C9.626,27.888 8.304,28.284 7.378,28.286C6.426,28.288 5.02,27.876 2.284,25.973L-2.284,32.541C0.813,34.694 3.914,36.293 7.394,36.286C10.899,36.279 13.934,34.647 16.897,32.493L12.194,26.021ZM15.079,33.693C17.647,31.826 18.969,31.43 19.895,31.428C20.847,31.427 22.253,31.838 24.989,33.741L29.556,27.173C26.46,25.02 23.358,23.421 19.879,23.428C16.374,23.436 13.339,25.068 10.376,27.221L15.079,33.693ZM37.648,26.021C35.08,27.888 33.758,28.284 32.832,28.286C31.88,28.288 30.475,27.876 27.738,25.973L23.171,32.541C26.267,34.694 29.369,36.293 32.848,36.286C36.353,36.279 39.388,34.647 42.352,32.493L37.648,26.021ZM36,29.257L36,42.057L44,42.057L44,29.257L36,29.257ZM12.194,39.736C9.626,41.602 8.304,41.998 7.378,42C6.426,42.002 5.02,41.59 2.284,39.687L-2.284,46.255C0.813,48.409 3.914,50.007 7.394,50C10.899,49.993 13.934,48.361 16.897,46.207L12.194,39.736ZM15.079,47.407C17.647,45.541 18.969,45.145 19.895,45.143C20.847,45.141 22.253,45.552 24.989,47.455L29.556,40.888C26.46,38.734 23.358,37.136 19.879,37.143C16.374,37.15 13.339,38.782 10.376,40.936L15.079,47.407ZM37.648,39.736C35.08,41.602 33.758,41.998 32.832,42C31.88,42.002 30.475,41.59 27.738,39.687L23.171,46.255C26.267,48.409 29.369,50.007 32.848,50C36.353,49.993 39.388,48.361 42.352,46.207L37.648,39.736Z" style="fill:white;fill-rule:nonzero;"/>
                </g>
            </g>
        </g>
    </g>
</svg>
