<svg width="64" height="64" viewBox="0 0 64 64" fill="none" xmlns="http://www.w3.org/2000/svg">
<g id="Brook-Notifications-Dot">
<path id="Vector" d="M26.5455 10.8285C21.0137 14.8489 17.833 14.885 12 10.8285M24.7273 12.0288C30.2591 8.00847 33.4398 7.97237 39.2727 12.0288M37.4545 10.8286C43.2875 14.885 46.4682 14.8489 52 10.8286V24.5428C46.4682 28.5631 43.2875 28.5992 37.4545 24.5428M26.5455 24.5428C21.0137 28.5631 17.833 28.5992 12 24.5428L12 37.7998M24.7273 25.743C30.2591 21.7227 33.4398 21.6866 39.2727 25.743M26.5455 38.257C21.0137 42.2773 17.833 42.3134 12 38.257M24.7273 39.4572C30.2591 35.4369 33.4398 35.4008 39.2727 39.4572M37.4545 38.257C43.2875 42.3134 46.4682 42.2773 52 38.257V51.0569M26.5455 51.9712C21.0137 55.9915 17.833 56.0276 12 51.9712M24.7273 53.1714C30.2591 49.1511 33.4398 49.115 39.2727 53.1714M52 51.9712C46.4682 55.9915 43.2875 56.0276 37.4545 51.9712" stroke="black" stroke-width="8" stroke-linecap="round"/>
<circle id="Notification" cx="50.5" cy="14.5" r="13" fill="#007BFF" stroke="white" stroke-width="3"/>
</g>
</svg>
