<svg width="48" height="57" viewBox="0 0 48 57" version="1.1" xmlns="http://www.w3.org/2000/svg" xmlns:xlink="http://www.w3.org/1999/xlink">
<title>Brook</title>
<desc>An adequate icon by Adam Sanderson</desc>
<g id="Canvas" transform="translate(615 162)">
<g id="Brook">
<g id="Vector">
<use xlink:href="#path0_stroke" transform="translate(-611 -155)"/>
</g>
</g>
</g>
<defs>
<path id="path0_stroke" d="M 16.8971 5.06426C 18.6841 3.76549 19.0799 1.26395 17.7812 -0.523081C 16.4824 -2.31012 13.9809 -2.70593 12.1938 -1.40716L 16.8971 5.06426ZM 2.28378 -1.45541C 0.470099 -2.7167 -2.02266 -2.2689 -3.28395 -0.455226C -4.54525 1.35845 -4.09745 3.85121 -2.28377 5.11251L 2.28378 -1.45541ZM 10.3757 -0.206901C 8.58862 1.09187 8.1928 3.59341 9.49157 5.38044C 10.7903 7.16748 13.2919 7.56329 15.0789 6.26453L 10.3757 -0.206901ZM 24.989 6.31277C 26.8026 7.57406 29.2954 7.12627 30.5567 5.31259C 31.818 3.49891 31.3702 1.00615 29.5565 -0.255144L 24.989 6.31277ZM 40 1.82855L 44 1.82855L 44 -6.02335L 37.6484 -1.40716L 40 1.82855ZM 27.7383 -1.4554C 25.9246 -2.7167 23.4319 -2.2689 22.1706 -0.455222C 20.9093 1.35846 21.3571 3.85122 23.1708 5.11251L 27.7383 -1.4554ZM 40 15.5428L 42.3516 18.7785L 44 17.5805L 44 15.5428L 40 15.5428ZM 16.8971 18.7785C 18.6841 17.4797 19.0799 14.9782 17.7812 13.1911C 16.4824 11.4041 13.9809 11.0083 12.1938 12.3071L 16.8971 18.7785ZM 1.64406e-06 15.5428L 2.28378 12.2588L -4 7.88886L -4 15.5428L 1.64406e-06 15.5428ZM 10.3757 13.5073C 8.58862 14.8061 8.1928 17.3076 9.49157 19.0947C 10.7903 20.8817 13.2919 21.2775 15.0789 19.9787L 10.3757 13.5073ZM 24.989 20.027C 26.8026 21.2883 29.2954 20.8405 30.5567 19.0268C 31.818 17.2131 31.3702 14.7204 29.5565 13.4591L 24.989 20.027ZM 27.7383 12.2588C 25.9246 10.9975 23.4319 11.4453 22.1706 13.259C 20.9093 15.0727 21.3571 17.5654 23.1708 18.8267L 27.7383 12.2588ZM -4 28.7998C -4 31.009 -2.20914 32.7998 -4.96057e-07 32.7998C 2.20914 32.7998 4 31.009 4 28.7998L -4 28.7998ZM 16.8971 32.4927C 18.6841 31.1939 19.0799 28.6924 17.7812 26.9053C 16.4824 25.1183 13.9809 24.7225 12.1938 26.0213L 16.8971 32.4927ZM 2.28378 25.973C 0.470099 24.7117 -2.02266 25.1595 -3.28395 26.9732C -4.54525 28.7869 -4.09745 31.2796 -2.28377 32.5409L 2.28378 25.973ZM 10.3757 27.2215C 8.58862 28.5203 8.1928 31.0218 9.49157 32.8089C 10.7903 34.5959 13.2919 34.9917 15.0789 33.6929L 10.3757 27.2215ZM 24.989 33.7412C 26.8026 35.0025 29.2954 34.5547 30.5567 32.741C 31.818 30.9273 31.3702 28.4346 29.5565 27.1733L 24.989 33.7412ZM 40 29.257L 44 29.257L 44 21.4051L 37.6484 26.0213L 40 29.257ZM 27.7383 25.973C 25.9246 24.7117 23.4319 25.1595 22.1706 26.9732C 20.9093 28.7869 21.3571 31.2796 23.1708 32.5409L 27.7383 25.973ZM 36 42.0569C 36 44.2661 37.7908 46.0569 40 46.0569C 42.2091 46.0569 44 44.2661 44 42.0569L 36 42.0569ZM 16.8971 46.2069C 18.6841 44.9081 19.0799 42.4066 17.7812 40.6196C 16.4824 38.8325 13.9809 38.4367 12.1938 39.7355L 16.8971 46.2069ZM 2.28378 39.6872C 0.470099 38.4259 -2.02266 38.8737 -3.28395 40.6874C -4.54525 42.5011 -4.09745 44.9938 -2.28377 46.2551L 2.28378 39.6872ZM 10.3757 40.9357C 8.58862 42.2345 8.1928 44.736 9.49157 46.5231C 10.7903 48.3101 13.2919 48.7059 15.0789 47.4072L 10.3757 40.9357ZM 24.989 47.4554C 26.8026 48.7167 29.2954 48.2689 30.5567 46.4552C 31.818 44.6415 31.3702 42.1488 29.5565 40.8875L 24.989 47.4554ZM 42.3516 46.2069C 44.1386 44.9081 44.5345 42.4066 43.2357 40.6196C 41.9369 38.8325 39.4354 38.4367 37.6484 39.7355L 42.3516 46.2069ZM 27.7383 39.6872C 25.9246 38.4259 23.4319 38.8737 22.1706 40.6874C 20.9093 42.5011 21.3571 44.9938 23.1708 46.2551L 27.7383 39.6872ZM 12.1938 -1.40716C 9.62556 0.459386 8.30401 0.855468 7.37753 0.857355C 6.42557 0.859293 5.02014 0.447555 2.28378 -1.45541L -2.28377 5.11251C 0.812828 7.26599 3.91424 8.86442 7.39382 8.85734C 10.8989 8.8502 13.9336 7.21806 16.8971 5.06426L 12.1938 -1.40716ZM 15.0789 6.26453C 17.6472 4.39798 18.9687 4.00189 19.8952 4.00001C 20.8472 3.99807 22.2526 4.40981 24.989 6.31277L 29.5565 -0.255144C 26.4599 -2.40863 23.3585 -4.00706 19.8789 -3.99998C 16.3739 -3.99284 13.3392 -2.3607 10.3757 -0.206901L 15.0789 6.26453ZM 37.6484 -1.40716C 35.0801 0.459391 33.7585 0.855473 32.8321 0.85736C 31.8801 0.859298 30.4747 0.44756 27.7383 -1.4554L 23.1708 5.11251C 26.2674 7.26599 29.3688 8.86443 32.8483 8.85734C 36.3534 8.8502 39.3881 7.21806 42.3516 5.06427L 37.6484 -1.40716ZM 36 1.82855L 36 15.5428L 44 15.5428L 44 1.82855L 36 1.82855ZM 12.1938 12.3071C 9.62556 14.1736 8.30401 14.5697 7.37753 14.5716C 6.42557 14.5735 5.02014 14.1618 2.28378 12.2588L -2.28377 18.8267C 0.812828 20.9802 3.91424 22.5786 7.39382 22.5716C 10.8989 22.5644 13.9336 20.9323 16.8971 18.7785L 12.1938 12.3071ZM 15.0789 19.9787C 17.6472 18.1122 18.9687 17.7161 19.8952 17.7142C 20.8472 17.7123 22.2526 18.124 24.989 20.027L 29.5565 13.4591C 26.4599 11.3056 23.3585 9.70716 19.8789 9.71424C 16.3739 9.72138 13.3392 11.3535 10.3757 13.5073L 15.0789 19.9787ZM 37.6484 12.3071C 35.0801 14.1736 33.7585 14.5697 32.8321 14.5716C 31.8801 14.5735 30.4747 14.1618 27.7383 12.2588L 23.1708 18.8267C 26.2674 20.9802 29.3688 22.5786 32.8483 22.5716C 36.3534 22.5644 39.3881 20.9323 42.3516 18.7785L 37.6484 12.3071ZM -4 15.5428L -4 28.7998L 4 28.7998L 4 15.5428L -4 15.5428ZM 12.1938 26.0213C 9.62556 27.8878 8.30401 28.2839 7.37753 28.2858C 6.42557 28.2877 5.02014 27.876 2.28378 25.973L -2.28377 32.5409C 0.812828 34.6944 3.91424 36.2928 7.39382 36.2858C 10.8989 36.2786 13.9336 34.6465 16.8971 32.4927L 12.1938 26.0213ZM 15.0789 33.6929C 17.6472 31.8264 18.9687 31.4303 19.8952 31.4284C 20.8472 31.4265 22.2526 31.8382 24.989 33.7412L 29.5565 27.1733C 26.4599 25.0198 23.3585 23.4214 19.8789 23.4284C 16.3739 23.4356 13.3392 25.0677 10.3757 27.2215L 15.0789 33.6929ZM 37.6484 26.0213C 35.0801 27.8878 33.7585 28.2839 32.8321 28.2858C 31.8801 28.2877 30.4747 27.876 27.7383 25.973L 23.1708 32.5409C 26.2674 34.6944 29.3688 36.2929 32.8483 36.2858C 36.3534 36.2786 39.3881 34.6465 42.3516 32.4927L 37.6484 26.0213ZM 36 29.257L 36 42.0569L 44 42.0569L 44 29.257L 36 29.257ZM 12.1938 39.7355C 9.62556 41.602 8.30401 41.9981 7.37753 42C 6.42557 42.0019 5.02014 41.5902 2.28378 39.6872L -2.28377 46.2551C 0.812827 48.4086 3.91424 50.0071 7.39382 50C 10.8989 49.9928 13.9336 48.3607 16.8971 46.2069L 12.1938 39.7355ZM 15.0789 47.4072C 17.6472 45.5406 18.9687 45.1445 19.8952 45.1426C 20.8472 45.1407 22.2526 45.5524 24.989 47.4554L 29.5565 40.8875C 26.4599 38.734 23.3585 37.1356 19.8789 37.1427C 16.3739 37.1498 13.3392 38.7819 10.3757 40.9357L 15.0789 47.4072ZM 37.6484 39.7355C 35.0801 41.602 33.7585 41.9981 32.8321 42C 31.8801 42.0019 30.4747 41.5902 27.7383 39.6872L 23.1708 46.2551C 26.2674 48.4086 29.3688 50.0071 32.8483 50C 36.3534 49.9928 39.3881 48.3607 42.3516 46.2069L 37.6484 39.7355Z"/>
</defs>
</svg>
