<svg width="64" height="64" viewBox="0 0 64 64" fill="none" xmlns="http://www.w3.org/2000/svg">
<g id="Brook-Subscribe-Plus">
<path id="Vector" d="M26.5455 11.8285C21.0137 15.8489 17.833 15.885 12 11.8285M24.7273 13.0288C30.2591 9.00847 33.4398 8.97237 39.2727 13.0288M37.4545 11.8286C43.2875 15.885 46.4682 15.8489 52 11.8286V25.5428C46.4682 29.5631 43.2875 29.5992 37.4545 25.5428M26.5455 25.5428C21.0137 29.5631 17.833 29.5992 12 25.5428L12 38.7998M24.7273 26.743C30.2591 22.7227 33.4398 22.6866 39.2727 26.743M26.5455 39.257C21.0137 43.2773 17.833 43.3134 12 39.257M24.7273 40.4572C30.2591 36.4369 33.4398 36.4008 39.2727 40.4572M37.4545 39.257C43.2875 43.3134 46.4682 43.2773 52 39.257V52.0569M26.5455 52.9712C21.0137 56.9915 17.833 57.0276 12 52.9712M24.7273 54.1714C30.2591 50.1511 33.4398 50.115 39.2727 54.1714M52 52.9712C46.4682 56.9915 43.2875 57.0276 37.4545 52.9712" stroke="black" stroke-width="8" stroke-linecap="round"/>
<path id="Vector_2" d="M35 10.8947H33V12.8947V21.1053V23.1053H35H41.8947L41.8947 30V32H43.8947H52.1053H54.1053V30V23.1053H61H63V21.1053V12.8947V10.8947H61H54.1053V4V2H52.1053L43.8947 2L41.8947 2V4L41.8947 10.8947H35Z" fill="#28A745" stroke="white" stroke-width="4"/>
</g>
</svg>
